<svg width="1200" height="630" viewBox="0 0 1200 630" xmlns="http://www.w3.org/2000/svg">
  <rect width="1200" height="630" fill="#0F1729"/>
  <!-- grid -->
  <defs>
    <pattern id="grid" width="60" height="60" patternUnits="userSpaceOnUse">
      <path d="M 60 0 L 0 0 0 60" fill="none" stroke="rgba(244,235,221,0.04)" stroke-width="1"/>
    </pattern>
  </defs>
  <rect width="1200" height="630" fill="url(#grid)"/>
  <!-- accent glow -->
  <ellipse cx="900" cy="200" rx="400" ry="300" fill="rgba(0,212,170,0.05)"/>
  <ellipse cx="300" cy="450" rx="300" ry="220" fill="rgba(232,132,92,0.05)"/>
  <!-- eyebrow -->
  <text x="80" y="130" font-family="monospace" font-size="18" font-weight="700" letter-spacing="4" fill="#E8845C" text-transform="uppercase">PINA AI LITERACY · ADULT EDITION</text>
  <!-- main title -->
  <text x="80" y="240" font-family="Georgia, serif" font-size="72" font-weight="500" fill="#F4EBDD" letter-spacing="-2">Sette conversazioni</text>
  <text x="80" y="320" font-family="Georgia, serif" font-size="72" font-weight="500" fill="#F4EBDD" letter-spacing="-2">difficili che vale la</text>
  <text x="80" y="400" font-family="Georgia, serif" font-size="72" font-weight="500" fill="#00D4AA" letter-spacing="-2">pena avere</text>
  <!-- subtitle -->
  <text x="80" y="465" font-family="sans-serif" font-size="22" fill="#8899BB">7 carte etiche per workshop di 75 minuti · CC BY-NC-SA 4.0</text>
  <!-- URL -->
  <text x="80" y="570" font-family="monospace" font-size="16" letter-spacing="2" fill="#8899BB">pablosandri05-a11y.github.io/adult-cart</text>
  <!-- decorative elements -->
  <circle cx="1080" cy="520" r="60" stroke="#E8845C" stroke-width="1.5" stroke-opacity="0.3" fill="none"/>
  <circle cx="1080" cy="520" r="40" stroke="#E8845C" stroke-width="1" stroke-opacity="0.2" fill="none"/>
  <circle cx="1080" cy="520" r="8" fill="#E8845C" fill-opacity="0.4"/>
  <line x1="1020" y1="520" x2="1040" y2="520" stroke="#E8845C" stroke-width="1" stroke-opacity="0.3"/>
  <line x1="1120" y1="520" x2="1140" y2="520" stroke="#E8845C" stroke-width="1" stroke-opacity="0.3"/>
  <rect x="1100" y="100" width="60" height="80" rx="8" stroke="#00D4AA" stroke-width="1.5" stroke-opacity="0.4" fill="none"/>
  <line x1="1112" y1="120" x2="1148" y2="120" stroke="#00D4AA" stroke-width="1" stroke-opacity="0.5"/>
  <line x1="1112" y1="135" x2="1148" y2="135" stroke="#00D4AA" stroke-width="1" stroke-opacity="0.4"/>
  <line x1="1112" y1="150" x2="1138" y2="150" stroke="#00D4AA" stroke-width="1" stroke-opacity="0.3"/>
  <!-- line separator -->
  <line x1="80" y1="540" x2="1120" y2="540" stroke="rgba(244,235,221,0.1)" stroke-width="1"/>
</svg>
